<svg width="158" height="70" viewBox="0 0 158 70" fill="none" xmlns="http://www.w3.org/2000/svg">
<g opacity="0.15">
<path fill-rule="evenodd" clip-rule="evenodd" d="M157.129 51.0815L120.787 50.1975L126.295 40.9482L110.291 36.7635C108.097 23.2968 84.0193 11.6648 56.638 12.6502C19.5646 13.9835 11.1366 25.9948 13.3566 37.2242C14.5913 43.4708 20.432 54.1962 31.584 61.1155C51.7653 73.6375 94.464 69.2635 107.966 47.0228L114.787 46.8895L108.399 56.0342L157.129 51.0815Z" fill="white"/>
<path fill-rule="evenodd" clip-rule="evenodd" d="M157.129 51.0815L120.787 50.1975L126.295 40.9482L110.291 36.7635C108.097 23.2968 84.0193 11.6648 56.638 12.6502C19.5646 13.9835 11.1366 25.9948 13.3566 37.2242C14.5913 43.4708 20.432 54.1962 31.584 61.1155C51.7653 73.6375 94.464 69.2635 107.966 47.0228L114.787 46.8895L108.399 56.0342L157.129 51.0815Z" fill="#01001F"/>
</g>
<path fill-rule="evenodd" clip-rule="evenodd" d="M157.129 43.9282L120.787 43.0435L126.295 33.7942L110.291 29.6102C108.097 16.1435 84.0193 4.51151 56.638 5.49685C19.5646 6.83018 11.1366 18.8408 13.3566 30.0702C14.5913 36.3168 20.432 47.0428 31.584 53.9622C51.7653 66.4842 94.464 62.1102 107.966 39.8695L114.787 39.7355L108.399 48.8808L157.129 43.9282Z" fill="white"/>
<path fill-rule="evenodd" clip-rule="evenodd" d="M113.726 29.6688C114.5 37.1608 109.035 43.8634 101.519 44.6394C94.0046 45.4154 87.2846 39.9708 86.5113 32.4794C85.7373 24.9868 91.2026 18.2848 98.7179 17.5081C106.233 16.7328 112.953 22.1768 113.726 29.6688ZM101.398 43.4601C108.259 42.7514 113.249 36.6314 112.543 29.7908C111.837 22.9508 105.701 17.9794 98.8399 18.6881C91.9779 19.3968 86.9879 25.5161 87.6946 32.3568C88.4006 39.1968 94.5359 44.1681 101.398 43.4601Z" fill="#04005E"/>
<path d="M101.401 43.4597C108.263 42.751 113.253 36.6317 112.547 29.791C111.84 22.951 105.705 17.9797 98.8433 18.6884C91.9819 19.3964 86.9919 25.5164 87.6979 32.357C88.4046 39.197 94.5399 44.1684 101.401 43.4597Z" fill="url(#paint0_linear_47_4)"/>
<path d="M100.665 36.3822C103.605 36.0789 105.744 33.4555 105.441 30.5242C105.138 27.5929 102.509 25.4622 99.5679 25.7662C96.6272 26.0695 94.4886 28.6929 94.7912 31.6242C95.0946 34.5555 97.7239 36.6862 100.665 36.3822Z" fill="url(#paint1_linear_47_4)"/>
<path fill-rule="evenodd" clip-rule="evenodd" d="M100.628 36.0282C103.373 35.7449 105.369 33.2975 105.086 30.5615C104.803 27.8249 102.349 25.8362 99.6046 26.1195C96.8599 26.4035 94.8639 28.8509 95.1466 31.5875C95.4292 34.3235 97.8832 36.3122 100.628 36.0282ZM100.665 36.3822C103.605 36.0789 105.744 33.4555 105.441 30.5242C105.139 27.5929 102.509 25.4622 99.5679 25.7662C96.6279 26.0695 94.4886 28.6929 94.7912 31.6242C95.0946 34.5555 97.7239 36.6862 100.665 36.3822Z" fill="url(#paint2_linear_47_4)"/>
<path d="M100.363 33.4338C100.99 33.37 101.565 33.0598 101.964 32.5715C102.362 32.0832 102.55 31.4566 102.486 30.8298C102.42 30.2032 102.108 29.6284 101.619 29.2319C101.129 28.8353 100.502 28.6494 99.8753 28.7151C99.2486 28.7789 98.6729 29.089 98.2749 29.5772C97.8768 30.0654 97.689 30.6917 97.7527 31.3184C97.8184 31.945 98.1303 32.5197 98.6197 32.9163C99.1092 33.3129 99.7361 33.4988 100.363 33.4331V33.4338Z" fill="url(#paint3_linear_47_4)"/>
<path fill-rule="evenodd" clip-rule="evenodd" d="M97.114 20.5848C91.3767 22.3314 88.13 28.4448 89.862 34.2401C91.594 40.0354 97.6493 43.3181 103.387 41.5721C109.125 39.8268 112.371 33.7128 110.639 27.9174C108.907 22.1221 102.851 18.8394 97.114 20.5848ZM89.6287 34.3114C87.8573 28.3848 91.1773 22.1341 97.0433 20.3494C102.91 18.5641 109.101 21.9208 110.873 27.8468C112.644 33.7721 109.324 40.0228 103.457 41.8081C97.5913 43.5934 91.3993 40.2374 89.6287 34.3114Z" fill="url(#paint4_radial_47_4)"/>
<path fill-rule="evenodd" clip-rule="evenodd" d="M97.114 20.5848C91.3767 22.3314 88.13 28.4448 89.862 34.2401C91.594 40.0354 97.6493 43.3181 103.387 41.5721C109.125 39.8268 112.371 33.7128 110.639 27.9174C108.907 22.1221 102.851 18.8394 97.114 20.5848ZM89.6287 34.3114C87.8573 28.3848 91.1773 22.1341 97.0433 20.3494C102.91 18.5641 109.101 21.9208 110.873 27.8468C112.644 33.7721 109.324 40.0228 103.457 41.8081C97.5913 43.5934 91.3993 40.2374 89.6287 34.3114Z" fill="url(#paint5_radial_47_4)"/>
<path fill-rule="evenodd" clip-rule="evenodd" d="M97.396 21.5281C92.174 23.1174 89.2193 28.6814 90.796 33.9554C92.372 39.2301 97.8833 42.2181 103.105 40.6288C108.327 39.0401 111.282 33.4761 109.705 28.2021C108.129 22.9274 102.618 19.9388 97.396 21.5281ZM90.562 34.0268C88.9467 28.6221 91.9747 22.9201 97.3253 21.2928C102.676 19.6641 108.323 22.7261 109.939 28.1308C111.554 33.5354 108.526 39.2368 103.175 40.8648C97.8247 42.4928 92.178 39.4314 90.562 34.0268Z" fill="url(#paint6_radial_47_4)"/>
<path fill-rule="evenodd" clip-rule="evenodd" d="M97.396 21.5281C92.174 23.1174 89.2193 28.6814 90.796 33.9554C92.372 39.2301 97.8833 42.2181 103.105 40.6288C108.327 39.0401 111.282 33.4761 109.705 28.2021C108.129 22.9274 102.618 19.9388 97.396 21.5281ZM90.562 34.0268C88.9467 28.6221 91.9747 22.9201 97.3253 21.2928C102.676 19.6641 108.323 22.7261 109.939 28.1308C111.554 33.5354 108.526 39.2368 103.175 40.8648C97.8247 42.4928 92.178 39.4314 90.562 34.0268Z" fill="url(#paint7_radial_47_4)"/>
<path fill-rule="evenodd" clip-rule="evenodd" d="M97.6781 22.4712C92.9721 23.9032 90.3087 28.9179 91.7294 33.6712C93.1507 38.4245 98.1174 41.1179 102.823 39.6859C107.529 38.2539 110.192 33.2392 108.771 28.4859C107.351 23.7325 102.384 21.0392 97.6781 22.4712ZM91.4961 33.7425C90.0367 28.8585 92.7727 23.7065 97.6074 22.2359C102.443 20.7645 107.545 23.5305 109.005 28.4145C110.465 33.2985 107.729 38.4499 102.893 39.9212C98.0587 41.3925 92.9561 38.6259 91.4961 33.7425Z" fill="url(#paint8_radial_47_4)"/>
<path fill-rule="evenodd" clip-rule="evenodd" d="M97.6781 22.4712C92.9721 23.9032 90.3087 28.9179 91.7294 33.6712C93.1507 38.4245 98.1174 41.1179 102.823 39.6859C107.529 38.2539 110.192 33.2392 108.771 28.4859C107.351 23.7325 102.384 21.0392 97.6781 22.4712ZM91.4961 33.7425C90.0367 28.8585 92.7727 23.7065 97.6074 22.2359C102.443 20.7645 107.545 23.5305 109.005 28.4145C110.465 33.2985 107.729 38.4499 102.893 39.9212C98.0587 41.3925 92.9561 38.6259 91.4961 33.7425Z" fill="url(#paint9_radial_47_4)"/>
<path fill-rule="evenodd" clip-rule="evenodd" d="M97.9599 23.4149C93.7693 24.6902 91.3979 29.1549 92.6633 33.3875C93.9286 37.6202 98.3506 40.0175 102.541 38.7429C106.731 37.4675 109.103 33.0029 107.838 28.7695C106.573 24.5375 102.15 22.1395 97.9599 23.4149ZM92.4299 33.4582C91.1259 29.0955 93.5699 24.4935 97.8893 23.1789C102.209 21.8649 106.767 24.3362 108.071 28.6989C109.375 33.0622 106.931 37.6642 102.611 38.9789C98.2926 40.2922 93.7339 37.8209 92.4299 33.4582Z" fill="url(#paint10_radial_47_4)"/>
<path fill-rule="evenodd" clip-rule="evenodd" d="M97.9599 23.4149C93.7693 24.6902 91.3979 29.1549 92.6633 33.3875C93.9286 37.6202 98.3506 40.0175 102.541 38.7429C106.731 37.4675 109.103 33.0029 107.838 28.7695C106.573 24.5375 102.15 22.1395 97.9599 23.4149ZM92.4299 33.4582C91.1259 29.0955 93.5699 24.4935 97.8893 23.1789C102.209 21.8649 106.767 24.3362 108.071 28.6989C109.375 33.0622 106.931 37.6642 102.611 38.9789C98.2926 40.2922 93.7339 37.8209 92.4299 33.4582Z" fill="url(#paint11_radial_47_4)"/>
<path fill-rule="evenodd" clip-rule="evenodd" d="M98.242 24.3582C94.5673 25.4762 92.488 29.3915 93.5973 33.1035C94.7067 36.8149 98.5847 38.9175 102.259 37.7995C105.934 36.6815 108.013 32.7662 106.904 29.0542C105.795 25.3422 101.916 23.2402 98.242 24.3582ZM93.364 33.1742C92.2153 29.3322 94.368 25.2795 98.1713 24.1222C101.975 22.9649 105.989 25.1415 107.137 28.9829C108.285 32.8249 106.133 36.8782 102.33 38.0355C98.526 39.1929 94.512 37.0162 93.364 33.1742Z" fill="url(#paint12_radial_47_4)"/>
<path fill-rule="evenodd" clip-rule="evenodd" d="M98.242 24.3582C94.5673 25.4762 92.488 29.3915 93.5973 33.1035C94.7067 36.8149 98.5847 38.9175 102.259 37.7995C105.934 36.6815 108.013 32.7662 106.904 29.0542C105.795 25.3422 101.916 23.2402 98.242 24.3582ZM93.364 33.1742C92.2153 29.3322 94.368 25.2795 98.1713 24.1222C101.975 22.9649 105.989 25.1415 107.137 28.9829C108.285 32.8249 106.133 36.8782 102.33 38.0355C98.526 39.1929 94.512 37.0162 93.364 33.1742Z" fill="url(#paint13_radial_47_4)"/>
<path fill-rule="evenodd" clip-rule="evenodd" d="M98.524 25.3013C95.3647 26.2626 93.5773 29.628 94.5307 32.8186C95.4847 36.01 98.8187 37.8173 101.977 36.856C105.136 35.8946 106.924 32.5293 105.97 29.338C105.017 26.1473 101.683 24.34 98.524 25.3013ZM94.2973 32.89C93.3047 29.5686 95.1653 26.066 98.4533 25.0653C101.741 24.0653 105.211 25.946 106.203 29.2673C107.196 32.588 105.335 36.0913 102.048 37.092C98.76 38.092 95.29 36.2106 94.2973 32.89Z" fill="url(#paint14_radial_47_4)"/>
<path fill-rule="evenodd" clip-rule="evenodd" d="M98.524 25.3013C95.3647 26.2626 93.5773 29.628 94.5307 32.8186C95.4847 36.01 98.8187 37.8173 101.977 36.856C105.136 35.8946 106.924 32.5293 105.97 29.338C105.017 26.1473 101.683 24.34 98.524 25.3013ZM94.2973 32.89C93.3047 29.5686 95.1653 26.066 98.4533 25.0653C101.741 24.0653 105.211 25.946 106.203 29.2673C107.196 32.588 105.335 36.0913 102.048 37.092C98.76 38.092 95.29 36.2106 94.2973 32.89Z" fill="url(#paint15_radial_47_4)"/>
<path d="M100.278 32.6063C100.685 32.5647 101.059 32.3632 101.318 32.0459C101.577 31.7286 101.699 31.3216 101.658 30.9143C101.615 30.5071 101.412 30.1335 101.094 29.8757C100.776 29.618 100.369 29.4971 99.9614 29.5396C99.554 29.581 99.1798 29.7825 98.921 30.0998C98.6622 30.4171 98.54 30.8242 98.5814 31.2316C98.6025 31.4333 98.6632 31.6288 98.7599 31.807C98.8566 31.9853 98.9874 32.1427 99.145 32.2704C99.3025 32.398 99.4837 32.4934 99.6781 32.551C99.8725 32.6087 100.076 32.6274 100.278 32.6063Z" fill="url(#paint16_linear_47_4)"/>
<path d="M100.393 31.9985C100.51 31.9867 100.623 31.952 100.726 31.8965C100.829 31.841 100.92 31.7658 100.994 31.6751C101.068 31.5844 101.123 31.48 101.157 31.3679C101.19 31.2558 101.201 31.1382 101.189 31.0218C101.177 30.9055 101.142 30.7926 101.087 30.6898C101.031 30.5869 100.955 30.4961 100.864 30.4224C100.774 30.3487 100.669 30.2937 100.557 30.2604C100.445 30.2271 100.327 30.2163 100.211 30.2285C100.094 30.2403 99.9814 30.275 99.8784 30.3305C99.7754 30.3859 99.6843 30.4612 99.6104 30.5519C99.5365 30.6426 99.4812 30.747 99.4476 30.8591C99.414 30.9711 99.4029 31.0887 99.4148 31.2051C99.4269 31.3215 99.4619 31.4343 99.5176 31.5372C99.5734 31.64 99.6489 31.7309 99.7398 31.8046C99.8306 31.8782 99.9351 31.9333 100.047 31.9665C100.159 31.9998 100.277 32.0107 100.393 31.9985Z" fill="white"/>
<path d="M95.7667 34.2058C95.4106 33.57 95.1887 32.868 95.1147 32.1431C94.8114 29.2038 96.9534 26.5744 99.9001 26.2698C100.84 26.172 101.79 26.3244 102.652 26.7115C103.514 27.0987 104.259 27.7069 104.811 28.4744C104.298 27.5615 103.529 26.8185 102.6 26.337C101.67 25.8556 100.619 25.6568 99.5781 25.7651C96.6321 26.0691 94.4894 28.6984 94.7934 31.6384C94.8875 32.5647 95.2231 33.45 95.7667 34.2058Z" fill="white"/>
<path fill-rule="evenodd" clip-rule="evenodd" d="M101.341 42.8697C107.875 42.195 112.628 36.367 111.955 29.8517C111.283 23.337 105.439 18.603 98.9046 19.2784C92.3692 19.9524 87.6166 25.781 88.2893 32.2957C88.9619 38.8104 94.8053 43.5444 101.341 42.8697ZM101.401 43.4597C108.263 42.751 113.253 36.6317 112.547 29.791C111.84 22.951 105.705 17.9797 98.8433 18.6884C91.9819 19.3964 86.9919 25.5164 87.6979 32.357C88.4046 39.197 94.5399 44.1684 101.401 43.4597Z" fill="url(#paint17_linear_47_4)"/>
<path d="M110.811 24.6197C109.547 22.7289 107.791 21.2188 105.733 20.2523C103.674 19.2858 101.391 18.8995 99.1293 19.135C92.2673 19.8437 87.2773 25.9637 87.9839 32.8043C88.1704 34.636 88.7632 36.4029 89.7192 37.9763C88.5967 36.2961 87.9027 34.3666 87.6979 32.3563C86.9919 25.5163 91.9819 19.3963 98.8433 18.6883C101.195 18.4434 103.567 18.8706 105.686 19.9204C107.804 20.9702 109.581 22.6002 110.811 24.6197Z" fill="#E5E3FF"/>
<path d="M110.495 21.5298C110.492 21.5028 110.483 21.4768 110.469 21.4538C110.454 21.4308 110.435 21.4114 110.412 21.397C110.389 21.3827 110.363 21.3738 110.336 21.371C110.309 21.3683 110.281 21.3717 110.256 21.3811L105.592 23.0811C105.555 23.0946 105.523 23.12 105.502 23.1535C105.481 23.1869 105.471 23.2264 105.475 23.2658L106.005 28.3891C106.011 28.4385 105.955 28.4731 105.911 28.4491C105.618 28.2904 105.283 28.2241 104.951 28.2591C104.048 28.3525 103.39 29.1525 103.482 30.0458C103.574 30.9391 104.382 31.5878 105.286 31.4951C106.19 31.4018 106.848 30.6018 106.756 29.7078L106.751 29.6611L106.254 24.8531C106.251 24.8269 106.258 24.8006 106.272 24.7783C106.286 24.756 106.307 24.7389 106.331 24.7298L109.927 23.4198C109.944 23.4135 109.962 23.4111 109.98 23.413C109.998 23.4148 110.016 23.4207 110.031 23.4303C110.046 23.4399 110.059 23.4529 110.069 23.4683C110.078 23.4837 110.084 23.5011 110.086 23.5191L110.412 26.6725C110.417 26.7225 110.363 26.7565 110.318 26.7325C110.025 26.5737 109.691 26.5075 109.359 26.5425C108.455 26.6358 107.797 27.4358 107.889 28.3291C107.982 29.2225 108.789 29.8718 109.693 29.7785C110.597 29.6851 111.255 28.8851 111.163 27.9918L111.161 27.9698C111.16 27.9615 111.159 27.9533 111.157 27.9451H111.158L110.495 21.5298Z" fill="#FF00F5"/>
<path fill-rule="evenodd" clip-rule="evenodd" d="M106.747 29.6598H106.747L106.753 29.7065L106.757 29.7531C106.821 30.6271 106.171 31.4011 105.282 31.4931C104.379 31.5865 103.571 30.9378 103.478 30.0445C103.386 29.1511 104.045 28.3511 104.948 28.2578C105.28 28.2234 105.614 28.2894 105.908 28.4471C105.951 28.4711 106.007 28.4371 106.001 28.3871L105.472 23.2644C105.468 23.225 105.477 23.1854 105.498 23.1518C105.519 23.1182 105.551 23.0926 105.588 23.0791L110.253 21.3791C110.361 21.3391 110.479 21.4124 110.491 21.5278L111.154 27.9431H111.153C111.155 27.9515 111.156 27.9599 111.157 27.9684L111.159 27.9898L111.163 28.0365C111.229 28.9111 110.577 29.6851 109.689 29.7765C108.785 29.8698 107.978 29.2211 107.886 28.3278C107.793 27.4345 108.451 26.6345 109.355 26.5411C109.503 26.5258 109.652 26.5303 109.799 26.5545L109.825 26.5585C109.996 26.5899 110.161 26.6482 110.315 26.7311C110.359 26.7545 110.413 26.7205 110.408 26.6711L110.083 23.5178C110.081 23.4997 110.075 23.4824 110.065 23.467C110.056 23.4516 110.043 23.4386 110.027 23.4289C110.012 23.4193 109.995 23.4133 109.977 23.4113C109.959 23.4094 109.94 23.4116 109.923 23.4178L106.327 24.7278C106.303 24.7371 106.282 24.7542 106.268 24.7767C106.254 24.7991 106.247 24.8255 106.25 24.8518L106.747 29.6598ZM109.736 25.9485L109.553 24.1838L106.879 25.1584L107.4 30.1885C107.254 31.1731 106.381 31.9758 105.343 32.0831C104.117 32.2098 103.013 31.3298 102.887 30.1051C102.761 28.8811 103.661 27.7938 104.887 27.6671C105.037 27.6518 105.185 27.6518 105.329 27.6651L104.881 23.3251C104.863 23.1543 104.903 22.9825 104.994 22.837C105.086 22.6915 105.223 22.5806 105.384 22.5218L110.049 20.8224C110.159 20.7821 110.277 20.7674 110.394 20.7795C110.511 20.7916 110.624 20.8302 110.723 20.8924C110.823 20.9545 110.907 21.0386 110.97 21.1382C111.032 21.2378 111.071 21.3503 111.083 21.4671L111.807 28.4718C111.661 29.4565 110.788 30.2591 109.751 30.3664C108.524 30.4931 107.42 29.6131 107.294 28.3891C107.167 27.1644 108.068 26.0778 109.295 25.9511C109.444 25.9358 109.591 25.9351 109.736 25.9485Z" fill="#04005E"/>
<path d="M105.575 23.0876C105.541 23.1034 105.514 23.1291 105.496 23.1612C105.478 23.1933 105.47 23.2303 105.474 23.2669L106.007 28.4269L106.028 28.4376C106.071 28.4616 106.127 28.4269 106.122 28.3776L105.575 23.0876ZM103.543 29.4109C103.481 29.6109 103.459 29.8256 103.481 30.0456C103.574 30.9389 104.382 31.5882 105.285 31.4949C106.138 31.4069 106.773 30.6896 106.764 29.8582C106.668 30.1675 106.484 30.4419 106.233 30.6469C105.983 30.8519 105.677 30.9785 105.355 31.0109C104.451 31.1042 103.644 30.4549 103.552 29.5616C103.546 29.5115 103.544 29.4612 103.543 29.4109ZM106.312 24.7342L109.927 23.4189C109.944 23.4127 109.962 23.4105 109.98 23.4124C109.998 23.4143 110.016 23.4202 110.031 23.4298C110.046 23.4394 110.059 23.4523 110.069 23.4676C110.079 23.4829 110.085 23.5002 110.087 23.5182L110.416 26.7082L110.437 26.7196C110.481 26.7436 110.536 26.7089 110.531 26.6596L110.156 23.0342C110.154 23.0162 110.148 22.9989 110.138 22.9836C110.129 22.9683 110.116 22.9554 110.1 22.9458C110.085 22.9362 110.068 22.9303 110.05 22.9284C110.032 22.9265 110.014 22.9287 109.997 22.9349L106.353 24.2602C106.328 24.2693 106.307 24.2864 106.293 24.3088C106.279 24.3313 106.273 24.3578 106.275 24.3842L106.312 24.7342ZM107.949 27.6942C107.949 27.7442 107.952 27.7942 107.957 27.8449C108.049 28.7382 108.857 29.3869 109.761 29.2936C110.083 29.2615 110.388 29.1351 110.639 28.9301C110.889 28.7252 111.074 28.4509 111.169 28.1416C111.171 28.5493 111.02 28.9429 110.747 29.2454C110.473 29.548 110.097 29.7377 109.691 29.7776C108.787 29.8709 107.98 29.2222 107.888 28.3289C107.865 28.1089 107.888 27.8936 107.949 27.6942Z" fill="#FFD0FE"/>
<path d="M65.5628 46.9786L65.4121 20.9752L72.6028 20.9339L72.6614 31.2319L82.1794 31.1772L82.1208 20.8792L89.3121 20.8379L89.4621 46.2232L82.2721 46.2646L82.2134 36.9446L73.9401 36.9986L73.9988 46.9372L65.5628 46.9786Z" fill="#04005E"/>
<path d="M68.8659 31.4405L61.7386 32.1765C61.6266 31.5898 61.4366 31.0658 61.1679 30.6058C60.9155 30.154 60.5701 29.7609 60.1546 29.4525C59.7299 29.1275 59.2401 28.8981 58.7186 28.7798C58.1672 28.6398 57.5552 28.6051 56.8812 28.6745C55.7012 28.7965 54.7332 29.1878 53.9752 29.8478C53.2259 30.5065 52.6959 31.3951 52.3859 32.5138C52.0839 33.6311 52.0112 34.9438 52.1666 36.4498C52.3306 38.0418 52.6792 39.3531 53.2112 40.3845C53.7512 41.4065 54.4532 42.1471 55.3179 42.6045C56.1819 43.0551 57.1826 43.2211 58.3199 43.1038C58.9686 43.0371 59.5419 42.8958 60.0392 42.6825C60.5111 42.4767 60.9401 42.1841 61.3039 41.8198C61.6502 41.4683 61.9241 41.0522 62.1099 40.5951C62.3128 40.0982 62.4267 39.5695 62.4466 39.0331L69.5792 38.3478C69.6086 39.4571 69.4166 40.6105 69.0039 41.8078C68.5906 42.9971 67.9446 44.1245 67.0672 45.1905C66.1972 46.2471 65.0759 47.1411 63.7046 47.8731C62.3326 48.6051 60.6986 49.0685 58.8026 49.2645C56.4272 49.5098 54.2426 49.2178 52.2499 48.3885C50.2652 47.5585 48.6232 46.2051 47.3219 44.3285C46.0299 42.4518 45.2352 40.0751 44.9379 37.1965C44.6392 34.3018 44.9432 31.8065 45.8512 29.7111C46.7579 27.6071 48.1019 25.9498 49.8846 24.7391C51.6659 23.5198 53.7192 22.7905 56.0446 22.5498C57.6786 22.3811 59.2059 22.4498 60.6252 22.7571C62.0452 23.0638 63.3172 23.5958 64.4426 24.3518C65.5672 25.0998 66.5106 26.0678 67.2712 27.2551C68.0326 28.4425 68.5646 29.8378 68.8659 31.4405Z" fill="#04005E"/>
<path d="M68.8659 31.4405L61.7386 32.1765C61.6266 31.5898 61.4366 31.0658 61.1679 30.6058C60.9155 30.154 60.5701 29.7609 60.1546 29.4525C59.7299 29.1275 59.2401 28.8981 58.7186 28.7798C58.1672 28.6398 57.5552 28.6051 56.8812 28.6745C55.7012 28.7965 54.7332 29.1878 53.9752 29.8478C53.2259 30.5065 52.6959 31.3951 52.3859 32.5138C52.0839 33.6311 52.0112 34.9438 52.1666 36.4498C52.3306 38.0418 52.6792 39.3531 53.2112 40.3845C53.7512 41.4065 54.4532 42.1471 55.3179 42.6045C56.1819 43.0551 57.1826 43.2211 58.3199 43.1038C58.9686 43.0371 59.5419 42.8958 60.0392 42.6825C60.5111 42.4767 60.9401 42.1841 61.3039 41.8198C61.6502 41.4683 61.9241 41.0522 62.1099 40.5951C62.3128 40.0982 62.4267 39.5695 62.4466 39.0331L69.5792 38.3478C69.6086 39.4571 69.4166 40.6105 69.0039 41.8078C68.5906 42.9971 67.9446 44.1245 67.0672 45.1905C66.1972 46.2471 65.0759 47.1411 63.7046 47.8731C62.3326 48.6051 60.6986 49.0685 58.8026 49.2645C56.4272 49.5098 54.2426 49.2178 52.2499 48.3885C50.2652 47.5585 48.6232 46.2051 47.3219 44.3285C46.0299 42.4518 45.2352 40.0751 44.9379 37.1965C44.6392 34.3018 44.9432 31.8065 45.8512 29.7111C46.7579 27.6071 48.1019 25.9498 49.8846 24.7391C51.6659 23.5198 53.7192 22.7905 56.0446 22.5498C57.6786 22.3811 59.2059 22.4498 60.6252 22.7571C62.0452 23.0638 63.3172 23.5958 64.4426 24.3518C65.5672 25.0998 66.5106 26.0678 67.2712 27.2551C68.0326 28.4425 68.5646 29.8378 68.8659 31.4405Z" stroke="#04005E" stroke-width="0.116"/>
<path d="M69.7506 43.0499L69.7539 43.6665L70.3706 43.6632L76.6386 43.6272L77.2553 43.6239L77.2519 43.0065L77.1993 33.8492L84.2626 33.8085L84.3153 42.9665L84.3193 43.5832L84.9359 43.5799L91.2033 43.5439L91.8199 43.5399L91.8173 42.9232L91.6739 17.9005L91.6699 17.2832L91.0533 17.2872L84.7853 17.3225L84.1679 17.3265L84.1719 17.9432L84.2239 27.1012L77.1613 27.1412L77.1079 17.9839L77.1053 17.3672L76.4879 17.3705L70.2199 17.4065L69.6033 17.4099L69.6073 18.0265L69.7506 43.0499Z" fill="url(#paint18_linear_47_4)" stroke="#04005E" stroke-width="1.85"/>
<path d="M71.3419 29.363L72.0039 29.295L71.8859 28.6397C71.5852 26.973 71.0659 25.5004 70.3179 24.2317C69.5745 22.971 68.6519 21.929 67.5485 21.117C66.4479 20.299 65.2085 19.721 63.8359 19.3817C62.4625 19.0424 60.9979 18.957 59.4479 19.117C57.2279 19.3464 55.2565 20.095 53.5505 21.369C51.8332 22.6417 50.5572 24.3884 49.7139 26.581C48.8625 28.7837 48.6072 31.381 48.9139 34.3504C49.2186 37.3017 49.9872 39.7864 51.2452 41.7777L51.2459 41.779C52.5046 43.7564 54.0992 45.2117 56.0339 46.1164L56.0346 46.117C57.9679 47.017 60.0746 47.3437 62.3386 47.1097C64.1332 46.9244 65.7052 46.4544 67.0379 45.683C68.3465 44.9257 69.4245 43.987 70.2625 42.8644C71.0919 41.7524 71.7032 40.5677 72.0912 39.3097V39.3077C72.4739 38.0564 72.6492 36.8357 72.6099 35.649L72.5879 34.9937L71.9346 35.0557L65.4412 35.675L64.9012 35.7264L64.8832 36.2684C64.8733 36.7342 64.7878 37.1953 64.6299 37.6337L64.6286 37.6357V37.6377C64.4947 38.013 64.2899 38.3591 64.0252 38.657C63.7706 38.941 63.4565 39.177 63.0759 39.3617C62.6985 39.5364 62.2472 39.6564 61.7139 39.711C60.7905 39.8064 60.0119 39.6484 59.3486 39.265C58.6846 38.8737 58.1132 38.231 57.6525 37.2877C57.1979 36.3337 56.8812 35.0924 56.7212 33.5444C56.5706 32.083 56.6266 30.8444 56.8706 29.8137C57.1212 28.787 57.5466 28.015 58.1212 27.4604C58.6932 26.915 59.4372 26.5804 60.3946 26.4817C60.9432 26.4257 61.4205 26.4644 61.8359 26.5837L61.8399 26.585L61.8445 26.5864C62.2406 26.6896 62.6082 26.881 62.9199 27.1464L62.9252 27.151L62.9306 27.1557C63.2439 27.4117 63.5032 27.7324 63.7086 28.127L63.7106 28.1304L63.7126 28.1344C63.9272 28.533 64.0859 28.9964 64.1839 29.5297L64.2859 30.0917L64.8539 30.033L71.3419 29.363Z" fill="url(#paint19_linear_47_4)" stroke="#04005E" stroke-width="1.85"/>
<path d="M51.8213 39.9756C52.2593 42.0689 55.5053 46.2876 61.178 46.2876" stroke="url(#paint20_linear_47_4)" stroke-width="1.388"/>
<path d="M59.6467 19.7166C67.9454 19.0153 70.9674 25.5106 71.2754 28.7473L70.6234 28.8146C69.2394 21.7879 64.5501 19.9079 59.3567 20.2893C53.4808 21.3299 51.4081 25.1279 50.9354 26.9333L50.3821 26.4479C52.3387 21.3786 57.3754 19.8613 59.6467 19.7166Z" fill="url(#paint21_linear_47_4)"/>
<path d="M71.9921 35.6716L71.4581 35.7242C70.8667 43.8849 64.5727 46.0022 61.7061 46.0136L61.7621 46.5502C69.9294 46.0789 72.1667 39.1356 71.9921 35.6716Z" fill="url(#paint22_linear_47_4)"/>
<path d="M65.4033 36.2833L71.9953 35.668L71.4106 36.2653L65.4546 36.782L65.4026 36.2833H65.4033Z" fill="url(#paint23_linear_47_4)"/>
<path d="M52.8074 22.9043C50.2528 25.1836 49.4494 29.4136 49.3674 31.2436L49.7301 32.1363C50.4348 26.9476 52.3401 24.1283 53.2041 23.3676L52.8074 22.9043Z" fill="url(#paint24_linear_47_4)"/>
<path d="M67.3306 18.2979L69.2719 18.3299L69.3592 21.8092L67.5586 21.2585L67.3306 18.2979Z" fill="#04005E"/>
<path fill-rule="evenodd" clip-rule="evenodd" d="M31.6133 50.2084L36.0959 24.6857L45.7159 24.0264L53.4026 48.3597L46.0839 49.115L44.6826 44.819L39.6033 45.1724L38.8499 49.6617L31.614 50.2084H31.6133ZM39.5079 40.8604L43.7373 40.683L40.9166 30.183L39.5079 40.8604Z" fill="url(#paint25_linear_47_4)"/>
<path fill-rule="evenodd" clip-rule="evenodd" d="M38.0627 42.0563L40.1987 26.4143L41.1361 26.377L45.2774 41.7503L38.0627 42.0563ZM44.6754 41.3363L40.6727 26.4763L38.6081 41.593L44.6754 41.3356V41.3363Z" fill="url(#paint26_linear_47_4)"/>
<path fill-rule="evenodd" clip-rule="evenodd" d="M52.6 48.4623L45.8933 27.2083L46.6346 26.9189L53.34 48.1729L52.6 48.4623Z" fill="url(#paint27_linear_47_4)" fill-opacity="0.3"/>
<path fill-rule="evenodd" clip-rule="evenodd" d="M38.7566 40.7021L40.1713 30.0381L40.9219 30.2228L39.5066 40.8874L38.7566 40.7021Z" fill="url(#paint28_linear_47_4)"/>
<path fill-rule="evenodd" clip-rule="evenodd" d="M43.6901 40.5776L40.8501 30.0909L41.6188 30.0176L44.4588 40.5042L43.6901 40.5776Z" fill="url(#paint29_linear_47_4)" fill-opacity="0.3"/>
<path fill-rule="evenodd" clip-rule="evenodd" d="M39.8072 44.0843L38.8645 49.6863L38.0779 49.5629L39.0205 43.9609L39.8072 44.0843Z" fill="url(#paint30_linear_47_4)" fill-opacity="0.5"/>
<path d="M31.8054 49.1225L31.6147 50.2071L38.8507 49.6605L39.0327 48.5771L31.8054 49.1225Z" fill="url(#paint31_linear_47_4)"/>
<path d="M39.6052 45.1717L44.6812 44.8184L46.0832 49.1144L53.4012 48.359L53.0752 47.3277L46.2686 48.0304L44.8666 43.7344L39.7872 44.0877L39.6052 45.1717Z" fill="url(#paint32_linear_47_4)"/>
<path fill-rule="evenodd" clip-rule="evenodd" d="M44.6827 44.819L46.084 49.115L53.4027 48.3597L45.716 24.0264L36.096 24.6864L31.614 50.2084L38.8493 49.6617L39.6033 45.1724L44.6827 44.819ZM38.1567 48.979L38.9113 44.4857L45.258 44.0444L46.6513 48.3184L52.378 47.7277L45.1353 24.8004L36.7833 25.373L32.5633 49.4004L38.1567 48.9777V48.979Z" fill="url(#paint33_linear_47_4)"/>
<path fill-rule="evenodd" clip-rule="evenodd" d="M29.7107 51.8219L34.7174 23.3099L46.874 22.4766L55.4494 49.6232L44.9467 50.7066L43.5307 46.3672L40.9847 46.5446L40.2314 51.0259L29.7107 51.8219ZM39.6 45.1719L44.6794 44.8186L46.0807 49.1146L53.4 48.3586L49.556 36.1919L45.7127 24.0252L36.0927 24.6852L31.6107 50.2066L38.8467 49.6599L39.6 45.1719ZM43.7334 40.6826L40.9127 30.1826L39.504 40.8599L43.7334 40.6826ZM41.314 39.3179L41.728 39.3006L41.452 38.2726L41.314 39.3179Z" fill="#04005E"/>
<path fill-rule="evenodd" clip-rule="evenodd" d="M41.1547 40.1114L42.9234 40.0274L41.7607 35.4688L41.1547 40.1114Z" fill="white"/>
<path fill-rule="evenodd" clip-rule="evenodd" d="M43.4341 36.5791L44.6868 41.3378L38.5854 41.6178L39.0181 38.6044L39.8074 38.7118L39.5008 40.8424L43.6901 40.6504L42.6608 36.7404L43.4341 36.5791Z" fill="url(#paint34_linear_47_4)"/>
<path d="M34.9099 21.7075L34.9179 21.7842L34.9946 21.7762L37.9746 21.4689L38.0519 21.4609L38.0439 21.3842L37.6819 17.8762L38.5906 17.7829L40.8619 21.1295L40.8886 21.1675L40.9339 21.1629L44.1712 20.8289L44.3012 20.8155L44.2272 20.7082L41.6259 16.9562C42.1277 16.6446 42.5355 16.2027 42.8059 15.6775C43.1086 15.0915 43.2172 14.4022 43.1359 13.6129C43.0546 12.8309 42.8126 12.1729 42.4059 11.6435C41.9999 11.1149 41.4686 10.7329 40.8146 10.4975C40.1599 10.2629 39.4199 10.1895 38.5959 10.2742L33.8572 10.7635L33.7806 10.7715L33.7886 10.8482L34.9099 21.7075ZM38.4032 15.3315L37.4292 15.4322L37.1732 12.9555L38.1472 12.8555C38.4912 12.8195 38.7846 12.8369 39.0292 12.9035H39.0306C39.2561 12.9547 39.459 13.0777 39.6086 13.2542L39.6099 13.2549C39.7526 13.4202 39.8426 13.6495 39.8732 13.9495C39.9039 14.2462 39.8626 14.4855 39.7566 14.6729C39.6532 14.8615 39.4892 15.0109 39.2606 15.1189C39.0326 15.2249 38.7472 15.2955 38.4032 15.3315ZM45.5785 20.3982L45.5792 20.3989L48.0125 19.8275C48.1392 19.5742 48.1886 19.3009 48.1626 19.0109V19.0095C48.1146 18.5855 47.9139 18.2375 47.5646 17.9709C47.2206 17.7042 46.8399 17.5902 46.4259 17.6329C46.2183 17.6512 46.0164 17.7107 45.8321 17.808C45.6478 17.9053 45.4848 18.0384 45.3526 18.1995C45.2185 18.3542 45.1185 18.5353 45.059 18.7312C44.9996 18.927 44.9819 19.1331 45.0072 19.3362C45.0486 19.7702 45.2399 20.1255 45.5785 20.3982ZM19.2572 12.9469L19.1819 12.9622L19.1972 13.0375L21.4239 23.6482L21.4399 23.7235L21.5159 23.7075L24.3506 23.1129L24.4259 23.0969L24.4099 23.0215L23.1532 17.0335L26.7119 22.4802L26.7412 22.5242L26.7926 22.5135L28.5019 22.1549L28.5532 22.1442L28.5619 22.0922L29.6392 15.7142L30.8872 21.6622L30.9032 21.7375L30.9786 21.7215L33.8132 21.1269L33.8892 21.1109L33.8732 21.0355L31.6466 10.4255L31.6306 10.3495L31.5552 10.3655L27.9486 11.1222L27.8986 11.1329L27.8892 11.1835L26.6792 17.6635L26.6552 17.6682L22.9426 12.2215L22.9139 12.1789L22.8632 12.1895L19.2572 12.9469Z" fill="#04005E" stroke="#04005E" stroke-width="0.231"/>
<path d="M35.6514 20.5776V21.0402L36.1134 21.0409L39.1094 21.0476H39.572L39.5734 20.5856L39.58 17.4449H39.8774L41.6774 20.8089L41.808 21.0522L42.084 21.0529L45.3394 21.0596L46.122 21.0616L45.7454 20.3749L43.7347 16.7056C44.1788 16.4287 44.5569 16.058 44.8427 15.6196C45.2554 14.9936 45.4494 14.2422 45.4507 13.3902C45.4527 12.5469 45.2674 11.7942 44.8747 11.1529C44.486 10.5189 43.94 10.0342 43.2507 9.70158C42.5627 9.36958 41.7754 9.21024 40.9007 9.20824L36.1374 9.19891L35.6747 9.19824L35.674 9.66091L35.6514 20.5776ZM40.1794 14.2176L39.586 14.2169L39.5894 12.4982L40.1827 12.4989C40.496 12.4996 40.736 12.5429 40.916 12.6136L40.9194 12.6149L40.9234 12.6162C41.094 12.6796 41.202 12.7689 41.274 12.8762L41.2767 12.8809L41.2794 12.8849C41.3467 12.9816 41.4007 13.1349 41.3994 13.3822C41.3994 13.6249 41.346 13.7736 41.2794 13.8656L41.278 13.8676L41.2767 13.8702C41.2067 13.9702 41.1 14.0569 40.9274 14.1169C40.7414 14.1802 40.496 14.2182 40.1794 14.2176ZM46.5134 20.6669L46.5154 20.6689L46.5174 20.6709C46.7007 20.8524 46.9181 20.9958 47.1572 21.0927C47.3962 21.1896 47.6521 21.2382 47.91 21.2356C48.2509 21.238 48.5861 21.1489 48.8807 20.9776L48.8834 20.9762L48.886 20.9749C49.1729 20.8054 49.4148 20.5694 49.5914 20.2869C49.782 19.9856 49.88 19.6502 49.8847 19.2902V19.2802C49.8814 18.7449 49.672 18.2796 49.2807 17.9082C48.8987 17.5429 48.4387 17.3482 47.9174 17.3469C47.6595 17.3433 47.4035 17.3907 47.1641 17.4866C46.9247 17.5825 46.7067 17.7249 46.5227 17.9056L46.522 17.9062L46.5207 17.9069C46.3345 18.0825 46.1869 18.295 46.0873 18.5307C45.9877 18.7664 45.9382 19.0203 45.942 19.2762C45.9365 19.5349 45.9843 19.7919 46.0826 20.0312C46.1809 20.2705 46.3276 20.4869 46.5134 20.6669Z" fill="url(#paint35_linear_47_4)" stroke="#04005E" stroke-width="1.388"/>
<path d="M20.3567 11.4416L19.9041 11.537L19.9994 11.9896L22.2261 22.5996L22.3207 23.0523L22.7741 22.957L25.6087 22.3623L26.0614 22.2676L25.9661 21.8143L25.1307 17.8323L27.5687 21.5636L27.7414 21.8283L28.0507 21.763L29.7601 21.4043L30.0687 21.3396L30.1207 21.029L30.8594 16.659L31.6894 20.6136L31.7841 21.0663L32.2374 20.971L35.0714 20.3763L35.5247 20.2816L35.4294 19.8283L33.2027 9.21829L33.1074 8.76562L32.6547 8.86096L29.0487 9.61762L28.7461 9.68096L28.6894 9.98562L27.6447 15.579L24.4401 10.877L24.2661 10.6216L23.9627 10.685L20.3567 11.4416Z" fill="url(#paint36_linear_47_4)" stroke="#04005E" stroke-width="1.388" stroke-miterlimit="16"/>
<path d="M20.5066 12.2047L23.8833 11.5067L28.0719 17.5467L29.4186 10.3154L32.7573 9.62207" stroke="url(#paint37_linear_47_4)" stroke-width="0.925"/>
<path d="M36.3132 20.415L36.4406 10.0156L41.2512 10.0616" stroke="url(#paint38_linear_47_4)" stroke-width="0.925"/>
<path d="M86.4693 12.0733L91.404 5.76734L88.798 3.13867L86.4693 12.0727V12.0733ZM88.484 13.8427L92.6367 14.15L92.3827 11.6927L88.484 13.8427ZM7.64733 37.6413L2.942 37.2993L4.016 39.7187L7.64733 37.6413ZM9.03 33.5493L0 26.7993L0.564 32.2613L9.03 33.5493ZM33.7587 56.0253L36.002 53.468L31.8467 54.5093L33.7587 56.0253ZM63.5993 11.732L60.8233 15.4153L61.53 10.9353L63.5993 11.732ZM59.9247 4.16534L57.818 14.7327L55.7913 5.77201L59.9247 4.16534ZM52.4793 11.1253L55.504 16.3327L50.562 13.048L52.4793 11.1253Z" fill="#04005E"/>
<path d="M21.4072 29.1303L22.0472 28.9636C22.4983 28.8389 22.9697 28.8051 23.4339 28.8642C23.8982 28.9233 24.3461 29.0741 24.7515 29.3078C25.157 29.5415 25.5119 29.8535 25.7957 30.2257C26.0795 30.5978 26.2865 31.0227 26.4046 31.4755C26.5227 31.9284 26.5496 32.4002 26.4837 32.8635C26.4179 33.3269 26.2606 33.7725 26.0209 34.1745C25.7813 34.5765 25.4641 34.9268 25.0878 35.2051C24.7116 35.4834 24.2838 35.6842 23.8292 35.7956L23.1892 35.9623L21.4072 29.1303Z" fill="white"/>
<path d="M28.9919 52.5602L30.7839 42.6475L32.3313 42.1162L30.8039 51.0095L39.0266 50.6562L38.7746 51.7982L28.9919 52.5602Z" fill="#04005E" stroke="#04005E" stroke-width="0.116"/>
<path d="M75.9966 28.6427L75.98 18.7227L75.9813 17.986L76.484 17.9727L76.5613 27.7313L84.812 27.6933L84.8153 17.9653L91.0486 17.9033L91.18 42.0727L90.49 42.144L90.284 18.7573L85.562 18.8187L85.666 28.458L75.9966 28.6427Z" fill="url(#paint39_linear_47_4)"/>
<path d="M70.2666 18.5756L76.4653 18.5556L76.4439 17.9756L70.2073 18.0003L70.2666 18.5756Z" fill="url(#paint40_linear_47_4)"/>
<path d="M76.0339 33.1357L76.1539 42.9284L76.6526 42.8771L76.6173 33.2324L76.0339 33.1357Z" fill="url(#paint41_linear_47_4)"/>
<path d="M84.8374 33.187L84.9441 42.873L85.4427 42.821L85.4074 33.0977L84.8374 33.187Z" fill="url(#paint42_linear_47_4)"/>
<path d="M92.9813 42.2767L92.5587 40.8087L91.652 42.242L92.9813 42.2767ZM16.4227 54.1114L11.1707 30.7334L21.2747 28.464C23.012 28.0734 24.6093 28.0747 26.066 28.4667C27.5227 28.8587 28.7527 29.594 29.7547 30.672C30.7573 31.75 31.4447 33.1187 31.818 34.7774C32.194 36.4514 32.146 37.9854 31.6747 39.378C31.2107 40.7694 30.3827 41.9467 29.19 42.91C28.0053 43.8714 26.522 44.5527 24.7387 44.9534L21.2187 45.744L22.7773 52.684L16.4227 54.1114ZM20.1107 40.8114L22.3507 40.3087C23.0973 40.1407 23.7047 39.8687 24.172 39.492C24.6453 39.1054 24.9687 38.6374 25.1413 38.0867C25.3213 37.5347 25.3373 36.928 25.188 36.2654C25.038 35.596 24.7653 35.058 24.3693 34.6507C23.98 34.2347 23.49 33.9614 22.9007 33.83C22.3167 33.6894 21.6513 33.7034 20.9047 33.87L18.6647 34.3734L20.1107 40.8114Z" fill="#04005E"/>
<path d="M16.4227 54.1114L11.1707 30.7334L21.2747 28.464C23.012 28.0734 24.6093 28.0747 26.066 28.4667C27.5227 28.8587 28.7527 29.594 29.7547 30.672C30.7573 31.75 31.4447 33.1187 31.818 34.7774C32.194 36.4514 32.146 37.9854 31.6747 39.378C31.2107 40.7694 30.3827 41.9467 29.19 42.91C28.0053 43.8714 26.522 44.5527 24.7387 44.9534L21.2187 45.744L22.7773 52.684L16.4227 54.1114ZM20.1107 40.8114L22.3507 40.3087C23.0973 40.1407 23.7047 39.8687 24.172 39.492C24.6453 39.1054 24.9687 38.6374 25.1413 38.0867C25.3213 37.5347 25.3373 36.928 25.188 36.2654C25.038 35.596 24.7653 35.058 24.3693 34.6507C23.98 34.2347 23.49 33.9614 22.9007 33.83C22.3167 33.6894 21.6513 33.7034 20.9047 33.87L18.6647 34.3734L20.1107 40.8114Z" stroke="#04005E" stroke-width="0.105"/>
<path d="M22.7946 45.9422L26.5506 45.0982C28.5813 44.6422 30.2833 43.8715 31.6486 42.7809C33.0219 41.6875 33.9833 40.3515 34.5253 38.7735C35.0766 37.1909 35.1359 35.4569 34.7139 33.5782C34.2959 31.7169 33.5139 30.1729 32.3619 28.9562C31.2126 27.7415 29.7986 26.9162 28.1266 26.4795C26.4533 26.0435 24.6233 26.0529 22.6419 26.4975L10.9966 29.4189L10.7913 29.4655L10.8379 29.6702L16.2946 55.3982C17.0926 55.7102 22.9659 55.0449 24.6959 53.4629L22.7946 45.9422Z" fill="#04005E" stroke="#04005E" stroke-width="0.631"/>
<path d="M24.9561 51.8202L23.3248 44.5589C23.3248 44.5589 25.2581 44.2942 26.7381 43.9815C29.0001 43.5029 30.6168 42.8815 32.4694 41.2282C34.0014 39.8602 34.8388 38.8689 35.4854 36.9202C36.1328 34.9682 36.0821 33.6229 35.6401 31.6562C35.2028 29.7082 34.3161 27.9455 33.1108 26.6495C31.9094 25.3575 30.2914 24.3955 28.5541 23.9275C26.8128 23.4589 24.5754 23.2362 22.0774 23.6475C18.5628 24.2255 15.8794 24.8055 10.7488 27.5089L10.8714 28.0555L16.7128 53.6722L16.8354 54.2189L17.3821 54.0962L24.5321 52.4895L25.0788 52.3675L24.9561 51.8202Z" fill="url(#paint43_linear_47_4)"/>
<path fill-rule="evenodd" clip-rule="evenodd" d="M11.9786 28.2121C14.6719 26.8581 21.3719 24.2174 26.5519 24.5961C27.2719 24.6481 27.9572 24.7668 28.6039 24.9401C32.6072 26.0134 35.1486 29.1934 35.6106 31.9421C35.9412 27.3314 31.1152 22.1134 23.2846 23.1921C15.9279 24.2054 14.0226 25.3274 11.1919 26.9954L10.6326 27.3241L11.9786 28.2121Z" fill="url(#paint44_linear_47_4)"/>
<path d="M35.6114 31.9424C35.1487 29.1938 32.6074 26.0138 28.6047 24.9404C31.2467 25.8664 34.2874 28.7264 34.8054 32.4898C35.3421 36.3831 34.0454 39.0098 30.0387 41.9731L30.4947 42.8691C30.4947 42.8691 35.6481 38.9144 35.8441 34.3204C35.9114 32.7458 35.6667 32.5051 35.6114 31.9424Z" fill="url(#paint45_linear_47_4)"/>
<path d="M11.9786 28.2122L10.6326 27.3242L16.7279 54.1596L25.0612 52.3789L23.1366 44.6482L22.1392 43.4956L23.8026 51.4409C22.3626 51.9449 18.5112 52.6256 17.5592 52.3542L11.9786 28.2122Z" fill="url(#paint46_radial_47_4)"/>
<path d="M30.4947 42.8687L30.0394 41.9727C28.9154 42.6853 26.2287 43.4953 22.1394 43.4953L23.1367 44.648L30.4947 42.8687Z" fill="url(#paint47_radial_47_4)"/>
<path d="M25.1134 51.798L23.4814 44.536C23.4814 44.536 25.5167 44.4093 26.9974 44.0966C29.2587 43.6186 30.7147 43.0106 32.5674 41.3573C34.0994 39.99 34.9947 38.832 35.6414 36.8826C36.4281 34.5113 36.0361 32.5986 35.7667 31.3986C35.3294 29.4506 34.3727 27.892 33.1667 26.596C31.9712 25.3014 30.4323 24.3733 28.7294 23.92C26.9887 23.4513 24.5761 23.2353 22.0787 23.6466C18.5634 24.2246 15.9954 24.8666 10.8521 27.5033L16.7141 53.6713C18.2841 54.1986 24.7301 52.9953 25.1134 51.798Z" stroke="#04005E" stroke-width="2.07"/>
<path fill-rule="evenodd" clip-rule="evenodd" d="M23.1301 28.9386L19.4654 29.8946L21.5287 38.5346C21.8314 38.5346 23.1961 38.636 25.7534 37.8033C28.3101 36.97 29.5414 34.758 28.9914 32.4186C28.4414 30.0786 25.4694 28.3886 23.1301 28.9386ZM18.7434 29.3686L21.1407 39.0653C21.1407 39.0653 23.0714 39.276 26.0461 38.3313C29.0207 37.3866 30.3974 35.1173 29.7061 32.18C29.0154 29.2426 25.7961 27.3353 22.8581 28.0266L18.7434 29.3686Z" fill="url(#paint48_linear_47_4)"/>
<path fill-rule="evenodd" clip-rule="evenodd" d="M23.4133 30.0618L20.8126 30.6731L22.3486 37.2031L24.9493 36.5918C25.378 36.4909 25.7827 36.3066 26.1403 36.0494C26.4978 35.7921 26.8012 35.4669 27.033 35.0924C27.2649 34.7179 27.4207 34.3014 27.4916 33.8667C27.5625 33.432 27.5471 32.9876 27.4463 32.5588C27.3454 32.13 27.1611 31.7253 26.9038 31.3678C26.6466 31.0103 26.3214 30.7069 25.9469 30.475C25.5724 30.2432 25.1559 30.0873 24.7212 30.0164C24.2865 29.9455 23.842 29.9609 23.4133 30.0618ZM19.4746 29.8451L21.5206 38.5411C22.2819 38.4718 23.5779 38.5378 25.9519 37.7185C28.3266 36.8998 29.5573 34.8085 28.9919 32.4071C28.4279 30.0058 25.7659 28.7225 23.1586 28.9785C20.5519 29.2345 19.4746 29.8451 19.4746 29.8451Z" fill="url(#paint49_linear_47_4)"/>
<path d="M20.26 30.3729C21.14 30.0302 22.546 29.7309 23.3467 29.6522C25.696 29.4216 27.612 30.5722 28.0867 32.6076C28.9287 36.2109 25.4533 37.8196 21.9813 37.8196L20.26 30.3729Z" fill="#04005E"/>
<path d="M22.5012 31.6116C23.8552 31.0703 26.1752 31.0703 26.6326 33.0263C27.1026 35.0396 25.0492 35.801 23.4926 35.8576L22.5012 31.6116Z" fill="white"/>
<defs>
<linearGradient id="paint0_linear_47_4" x1="98.8433" y1="18.6877" x2="101.401" y2="43.4597" gradientUnits="userSpaceOnUse">
<stop stop-color="#05004A"/>
<stop offset="1" stop-color="#030033"/>
</linearGradient>
<linearGradient id="paint1_linear_47_4" x1="99.5679" y1="25.7662" x2="100.665" y2="36.3822" gradientUnits="userSpaceOnUse">
<stop stop-color="#FAC400"/>
<stop offset="0.495" stop-color="#FAA500"/>
<stop offset="1" stop-color="#FA8700"/>
</linearGradient>
<linearGradient id="paint2_linear_47_4" x1="98.4379" y1="26.1129" x2="100.818" y2="35.3462" gradientUnits="userSpaceOnUse">
<stop offset="0.583" stop-color="#FDE280" stop-opacity="0"/>
<stop offset="1" stop-color="#FDE280"/>
</linearGradient>
<linearGradient id="paint3_linear_47_4" x1="98.0987" y1="28.1038" x2="100.747" y2="33.3978" gradientUnits="userSpaceOnUse">
<stop stop-color="#832CC8"/>
<stop offset="0.482" stop-color="#FAA501"/>
<stop offset="1" stop-color="#FEE280"/>
</linearGradient>
<radialGradient id="paint4_radial_47_4" cx="0" cy="0" r="1" gradientUnits="userSpaceOnUse" gradientTransform="translate(108.377 43.974) rotate(-121.924) scale(31.1127 37.626)">
<stop offset="0.222" stop-color="white"/>
<stop offset="0.447" stop-color="white" stop-opacity="0"/>
</radialGradient>
<radialGradient id="paint5_radial_47_4" cx="0" cy="0" r="1" gradientUnits="userSpaceOnUse" gradientTransform="translate(91.9253 17.5681) rotate(58.931) scale(31.5876 38.2003)">
<stop offset="0.222" stop-color="white"/>
<stop offset="0.447" stop-color="white" stop-opacity="0"/>
</radialGradient>
<radialGradient id="paint6_radial_47_4" cx="0" cy="0" r="1" gradientUnits="userSpaceOnUse" gradientTransform="translate(108.377 43.974) rotate(-121.924) scale(31.1127 37.626)">
<stop offset="0.222" stop-color="white"/>
<stop offset="0.447" stop-color="white" stop-opacity="0"/>
</radialGradient>
<radialGradient id="paint7_radial_47_4" cx="0" cy="0" r="1" gradientUnits="userSpaceOnUse" gradientTransform="translate(91.9253 17.5681) rotate(58.931) scale(31.5876 38.2003)">
<stop offset="0.222" stop-color="white"/>
<stop offset="0.447" stop-color="white" stop-opacity="0"/>
</radialGradient>
<radialGradient id="paint8_radial_47_4" cx="0" cy="0" r="1" gradientUnits="userSpaceOnUse" gradientTransform="translate(108.377 43.9738) rotate(-121.924) scale(31.1127 37.626)">
<stop offset="0.222" stop-color="white"/>
<stop offset="0.447" stop-color="white" stop-opacity="0"/>
</radialGradient>
<radialGradient id="paint9_radial_47_4" cx="0" cy="0" r="1" gradientUnits="userSpaceOnUse" gradientTransform="translate(91.9254 17.5679) rotate(58.931) scale(31.5876 38.2003)">
<stop offset="0.222" stop-color="white"/>
<stop offset="0.447" stop-color="white" stop-opacity="0"/>
</radialGradient>
<radialGradient id="paint10_radial_47_4" cx="0" cy="0" r="1" gradientUnits="userSpaceOnUse" gradientTransform="translate(108.377 43.9741) rotate(-121.924) scale(31.1127 37.626)">
<stop offset="0.222" stop-color="white"/>
<stop offset="0.447" stop-color="white" stop-opacity="0"/>
</radialGradient>
<radialGradient id="paint11_radial_47_4" cx="0" cy="0" r="1" gradientUnits="userSpaceOnUse" gradientTransform="translate(91.9253 17.5682) rotate(58.931) scale(31.5876 38.2003)">
<stop offset="0.222" stop-color="white"/>
<stop offset="0.447" stop-color="white" stop-opacity="0"/>
</radialGradient>
<radialGradient id="paint12_radial_47_4" cx="0" cy="0" r="1" gradientUnits="userSpaceOnUse" gradientTransform="translate(108.377 43.9741) rotate(-121.924) scale(31.1127 37.626)">
<stop offset="0.222" stop-color="white"/>
<stop offset="0.447" stop-color="white" stop-opacity="0"/>
</radialGradient>
<radialGradient id="paint13_radial_47_4" cx="0" cy="0" r="1" gradientUnits="userSpaceOnUse" gradientTransform="translate(91.9253 17.5682) rotate(58.931) scale(31.5876 38.2003)">
<stop offset="0.222" stop-color="white"/>
<stop offset="0.447" stop-color="white" stop-opacity="0"/>
</radialGradient>
<radialGradient id="paint14_radial_47_4" cx="0" cy="0" r="1" gradientUnits="userSpaceOnUse" gradientTransform="translate(108.377 43.9739) rotate(-121.924) scale(31.1127 37.626)">
<stop offset="0.222" stop-color="white"/>
<stop offset="0.447" stop-color="white" stop-opacity="0"/>
</radialGradient>
<radialGradient id="paint15_radial_47_4" cx="0" cy="0" r="1" gradientUnits="userSpaceOnUse" gradientTransform="translate(91.9253 17.568) rotate(58.931) scale(31.5876 38.2003)">
<stop offset="0.222" stop-color="white"/>
<stop offset="0.447" stop-color="white" stop-opacity="0"/>
</radialGradient>
<linearGradient id="paint16_linear_47_4" x1="99.9614" y1="29.5396" x2="100.278" y2="32.6063" gradientUnits="userSpaceOnUse">
<stop stop-color="#05004A"/>
<stop offset="1" stop-color="#030033"/>
</linearGradient>
<linearGradient id="paint17_linear_47_4" x1="96.2066" y1="19.497" x2="101.759" y2="41.0417" gradientUnits="userSpaceOnUse">
<stop stop-color="#E5E3FF"/>
<stop offset="0.271" stop-color="#DAC9F5" stop-opacity="0.37"/>
<stop offset="0.495" stop-color="#C9A2E7" stop-opacity="0.438"/>
<stop offset="1" stop-color="#FF00FF"/>
</linearGradient>
<linearGradient id="paint18_linear_47_4" x1="29.6946" y1="17.9132" x2="29.8419" y2="43.6692" gradientUnits="userSpaceOnUse">
<stop stop-color="#FBC401"/>
<stop offset="1" stop-color="#FA8901"/>
</linearGradient>
<linearGradient id="paint19_linear_47_4" x1="31.7786" y1="22.5944" x2="34.5472" y2="49.411" gradientUnits="userSpaceOnUse">
<stop stop-color="#FBC401"/>
<stop offset="1" stop-color="#FA8901"/>
</linearGradient>
<linearGradient id="paint20_linear_47_4" x1="55.5226" y1="39.6843" x2="57.056" y2="46.6576" gradientUnits="userSpaceOnUse">
<stop stop-color="white"/>
<stop offset="1" stop-color="white" stop-opacity="0"/>
</linearGradient>
<linearGradient id="paint21_linear_47_4" x1="70.4487" y1="29.0173" x2="53.4601" y2="18.9426" gradientUnits="userSpaceOnUse">
<stop stop-color="white" stop-opacity="0"/>
<stop offset="0.317" stop-color="white"/>
<stop offset="1" stop-color="white" stop-opacity="0"/>
</linearGradient>
<linearGradient id="paint22_linear_47_4" x1="66.4014" y1="36.3056" x2="67.4007" y2="45.9836" gradientUnits="userSpaceOnUse">
<stop stop-color="white"/>
<stop offset="1" stop-color="white" stop-opacity="0"/>
</linearGradient>
<linearGradient id="paint23_linear_47_4" x1="71.4786" y1="36.1986" x2="67.3639" y2="36.5073" gradientUnits="userSpaceOnUse">
<stop stop-color="white"/>
<stop offset="1" stop-color="white" stop-opacity="0"/>
</linearGradient>
<linearGradient id="paint24_linear_47_4" x1="49.4068" y1="31.627" x2="51.8061" y2="26.341" gradientUnits="userSpaceOnUse">
<stop stop-color="white"/>
<stop offset="1" stop-color="white" stop-opacity="0"/>
</linearGradient>
<linearGradient id="paint25_linear_47_4" x1="35.4106" y1="26.4404" x2="44.2393" y2="50.541" gradientUnits="userSpaceOnUse">
<stop offset="0.141" stop-color="#FAC400"/>
<stop offset="0.479" stop-color="#FAA500"/>
<stop offset="0.865" stop-color="#FA8700"/>
</linearGradient>
<linearGradient id="paint26_linear_47_4" x1="39.3527" y1="39.2776" x2="44.6207" y2="41.507" gradientUnits="userSpaceOnUse">
<stop offset="0.135" stop-color="white" stop-opacity="0"/>
<stop offset="1" stop-color="white"/>
</linearGradient>
<linearGradient id="paint27_linear_47_4" x1="47.3026" y1="30.0356" x2="54.1966" y2="48.6443" gradientUnits="userSpaceOnUse">
<stop offset="0.01" stop-color="#FBA201" stop-opacity="0"/>
<stop offset="0.297" stop-color="#7A0049"/>
<stop offset="1" stop-color="#FA8701" stop-opacity="0"/>
</linearGradient>
<linearGradient id="paint28_linear_47_4" x1="39.8386" y1="30.1248" x2="38.8713" y2="40.8748" gradientUnits="userSpaceOnUse">
<stop offset="0.01" stop-color="#FBA201" stop-opacity="0"/>
<stop offset="0.364" stop-color="#7A0049" stop-opacity="0.72"/>
<stop offset="0.618" stop-color="#8B1240" stop-opacity="0.52"/>
<stop offset="1" stop-color="#FA8701" stop-opacity="0"/>
</linearGradient>
<linearGradient id="paint29_linear_47_4" x1="41.0988" y1="30.2462" x2="42.2954" y2="41.0902" gradientUnits="userSpaceOnUse">
<stop offset="0.01" stop-color="#FBA201" stop-opacity="0"/>
<stop offset="0.094" stop-color="#7A0049"/>
<stop offset="1" stop-color="#FA8701" stop-opacity="0"/>
</linearGradient>
<linearGradient id="paint30_linear_47_4" x1="39.1112" y1="43.8463" x2="39.7579" y2="49.8329" gradientUnits="userSpaceOnUse">
<stop offset="0.01" stop-color="#FBA201" stop-opacity="0"/>
<stop offset="0.192" stop-color="#7A0049"/>
<stop offset="0.535" stop-color="#B0392B" stop-opacity="0.575"/>
<stop offset="0.811" stop-color="#FA8701" stop-opacity="0"/>
</linearGradient>
<linearGradient id="paint31_linear_47_4" x1="40.0527" y1="43.2385" x2="44.0401" y2="47.8958" gradientUnits="userSpaceOnUse">
<stop stop-color="#FDE280" stop-opacity="0"/>
<stop offset="1" stop-color="#FDE280"/>
</linearGradient>
<linearGradient id="paint32_linear_47_4" x1="40.0506" y1="43.239" x2="44.0379" y2="47.8957" gradientUnits="userSpaceOnUse">
<stop stop-color="#FDE280" stop-opacity="0"/>
<stop offset="1" stop-color="#FDE280"/>
</linearGradient>
<linearGradient id="paint33_linear_47_4" x1="33.8907" y1="26.701" x2="46.2673" y2="47.835" gradientUnits="userSpaceOnUse">
<stop stop-color="white"/>
<stop offset="0.702" stop-color="#FA8701" stop-opacity="0"/>
</linearGradient>
<linearGradient id="paint34_linear_47_4" x1="41.0008" y1="36.7184" x2="42.2068" y2="42.3278" gradientUnits="userSpaceOnUse">
<stop stop-color="#FAA101" stop-opacity="0"/>
<stop offset="0.292" stop-color="#FAA401" stop-opacity="0"/>
<stop offset="1" stop-color="#FDE280"/>
</linearGradient>
<linearGradient id="paint35_linear_47_4" x1="42.7887" y1="9.67491" x2="42.7667" y2="20.7622" gradientUnits="userSpaceOnUse">
<stop stop-color="#FBBE02"/>
<stop offset="1" stop-color="#FA8E02"/>
</linearGradient>
<linearGradient id="paint36_linear_47_4" x1="26.6007" y1="10.6043" x2="28.8274" y2="21.2143" gradientUnits="userSpaceOnUse">
<stop stop-color="#FBBE02"/>
<stop offset="1" stop-color="#FA8E02"/>
</linearGradient>
<linearGradient id="paint37_linear_47_4" x1="26.3573" y1="10.3214" x2="27.7546" y2="17.8507" gradientUnits="userSpaceOnUse">
<stop stop-color="white"/>
<stop offset="1" stop-color="white" stop-opacity="0"/>
</linearGradient>
<linearGradient id="paint38_linear_47_4" x1="36.2252" y1="9.80562" x2="38.6472" y2="11.0056" gradientUnits="userSpaceOnUse">
<stop stop-color="white"/>
<stop offset="1" stop-color="white" stop-opacity="0"/>
</linearGradient>
<linearGradient id="paint39_linear_47_4" x1="80.504" y1="16.938" x2="80.9953" y2="39.52" gradientUnits="userSpaceOnUse">
<stop stop-color="white"/>
<stop offset="1" stop-color="white" stop-opacity="0"/>
</linearGradient>
<linearGradient id="paint40_linear_47_4" x1="75.9046" y1="18.3809" x2="70.8099" y2="18.2089" gradientUnits="userSpaceOnUse">
<stop stop-color="white"/>
<stop offset="1" stop-color="white" stop-opacity="0"/>
</linearGradient>
<linearGradient id="paint41_linear_47_4" x1="75.8806" y1="33.1511" x2="76.8826" y2="42.8531" gradientUnits="userSpaceOnUse">
<stop stop-color="#8B1640" stop-opacity="0.31"/>
<stop offset="0.302" stop-color="#8B1640"/>
<stop offset="1" stop-color="#8B1640" stop-opacity="0"/>
</linearGradient>
<linearGradient id="paint42_linear_47_4" x1="85.3794" y1="33.021" x2="85.6727" y2="42.7977" gradientUnits="userSpaceOnUse">
<stop stop-color="#8B1640" stop-opacity="0.28"/>
<stop offset="0.291" stop-color="#8B1640"/>
<stop offset="1" stop-color="#8B1640" stop-opacity="0"/>
</linearGradient>
<linearGradient id="paint43_linear_47_4" x1="40.9294" y1="20.2249" x2="47.0108" y2="47.2969" gradientUnits="userSpaceOnUse">
<stop stop-color="#FBC401"/>
<stop offset="1" stop-color="#FA8901"/>
</linearGradient>
<linearGradient id="paint44_linear_47_4" x1="27.5472" y1="22.0974" x2="21.3292" y2="34.7854" gradientUnits="userSpaceOnUse">
<stop stop-color="white"/>
<stop offset="1" stop-color="white" stop-opacity="0"/>
</linearGradient>
<linearGradient id="paint45_linear_47_4" x1="37.3401" y1="41.4784" x2="29.0447" y2="41.0598" gradientUnits="userSpaceOnUse">
<stop stop-color="white"/>
<stop offset="1" stop-color="white" stop-opacity="0"/>
</linearGradient>
<radialGradient id="paint46_radial_47_4" cx="0" cy="0" r="1" gradientUnits="userSpaceOnUse" gradientTransform="translate(16.2332 55.0649) rotate(-89.2938) scale(26.9578 15.6097)">
<stop offset="0.406" stop-color="#FDE280"/>
<stop offset="1" stop-color="#FFF2C4" stop-opacity="0.31"/>
</radialGradient>
<radialGradient id="paint47_radial_47_4" cx="0" cy="0" r="1" gradientUnits="userSpaceOnUse" gradientTransform="translate(16.2341 55.0647) rotate(-89.294) scale(26.9578 15.1686)">
<stop offset="0.323" stop-color="#FDE280"/>
<stop offset="1" stop-color="#FFF2C4" stop-opacity="0"/>
</radialGradient>
<linearGradient id="paint48_linear_47_4" x1="20.1881" y1="43.2026" x2="24.2654" y2="33.4013" gradientUnits="userSpaceOnUse">
<stop stop-color="white"/>
<stop offset="1" stop-color="white" stop-opacity="0"/>
</linearGradient>
<linearGradient id="paint49_linear_47_4" x1="23.4906" y1="28.9005" x2="24.4506" y2="38.2218" gradientUnits="userSpaceOnUse">
<stop stop-color="#7B0C3B"/>
<stop offset="0.505" stop-color="#BA4D4D" stop-opacity="0.29"/>
<stop offset="1" stop-color="#CCB375" stop-opacity="0"/>
</linearGradient>
</defs>
</svg>
